<?xml version="1.0" encoding="iso-8859-1"?>
<!-- Generator: Adobe Illustrator 19.0.0, SVG Export Plug-In . SVG Version: 6.00 Build 0)  -->
<svg version="1.1" id="Capa_1" xmlns="http://www.w3.org/2000/svg" xmlns:xlink="http://www.w3.org/1999/xlink" x="0px" y="0px"
	 viewBox="0 0 512 512" style="enable-background:new 0 0 512 512;" xml:space="preserve">
<circle style="fill:#FF9A00;" cx="256" cy="256" r="256"/>
<path style="fill:#E67500;" d="M512,256c0-18.225-1.919-35.999-5.539-53.146L384.256,81.002c-11.3-11.3-29.75-10.869-40.509,0.947
	l-72.174,79.261l-3.766,1.038c-40.521,11.165-72.637,24.941-95.456,40.946c-20.065,14.074-33.132,29.924-38.837,47.111
	c-3.356,10.112-3.884,19.825-2.522,28.744H87.797v43.16c0,36.245,15.231,68.927,39.635,92.009l95.685,95.685
	C233.883,511.285,244.858,512,256,512C397.385,512,512,397.385,512,256z"/>
<path style="fill:#802897;" d="M268.542,164.15l32.556,32.556l2.984-2.984l79.236-72.219c11.807-10.762,12.234-29.204,0.938-40.5
	l0,0c-11.3-11.3-29.75-10.869-40.509,0.947l-72.174,79.262L268.542,164.15z"/>
<path style="fill:#451152;" d="M383.315,121.5l-79.236,72.218l-2.983,2.983l-16.277-16.277l99.43-99.43l0.007,0.007
	C395.551,92.298,395.124,110.743,383.315,121.5z"/>
<path style="fill:#FFFFFF;" d="M133.514,250.305c-9.03,27.204,2.389,51.532,16.086,65.229c0.008,0.008,0.017,0.016,0.025,0.024
	c0.003,0.003,0.006,0.007,0.009,0.01c0.007,0.007,0.015,0.013,0.022,0.02c13.742,13.708,38.105,25.113,65.346,16.071
	c17.194-5.707,33.047-18.766,47.12-38.815c16.003-22.798,29.771-54.881,40.924-95.357l1.038-3.766l-7.038-7.037l-18.462-18.462
	l-7.011-7.011l-3.766,1.037c-40.522,11.165-72.637,24.941-95.456,40.946C152.286,217.268,139.219,233.118,133.514,250.305z
	 M211.839,318.578c-11.907,3.952-23.21,2.829-32.809-0.848c20.453-7.829,56.392-34.199,109.022-116.693
	C263.832,285.131,233.363,311.433,211.839,318.578z M279.599,189.723c-24.868,39.524-48.172,69.88-69.307,90.274
	c-21.417,20.666-35.064,25.58-41.293,26.67c-6.061,1.061-8.467-0.704-9.094-1.315c-0.013-0.013-0.026-0.025-0.039-0.038
	c-0.594-0.6-2.391-2.986-1.327-9.068c1.088-6.218,6.001-19.846,26.678-41.258c20.406-21.13,50.776-44.436,90.327-69.32
	L279.599,189.723z M264.133,177.277c-82.488,52.638-108.845,88.541-116.663,108.962c-3.688-9.583-4.824-20.875-0.875-32.772
	C153.733,231.964,180.035,201.519,264.133,177.277z"/>
<path style="fill:#FFE670;" d="M262.122,292.846c16.001-22.796,29.768-54.883,40.926-95.362l1.032-3.765l-16.277-16.277
	l-10.245,10.244l2.037,2.037c-24.859,39.526-48.167,69.879-69.3,90.276c-21.416,20.667-35.064,25.575-41.294,26.666
	c-6.059,1.064-8.47-0.703-9.094-1.314l-0.007-0.007l-10.245,10.245c13.747,13.707,38.107,25.109,65.345,16.073
	C232.196,325.952,248.053,312.895,262.122,292.846z M211.838,318.579c-11.907,3.956-23.21,2.826-32.81-0.848
	c20.456-7.827,56.395-34.197,109.024-116.699C263.83,285.131,233.366,311.429,211.838,318.579z"/>
<path style="fill:#B6EFAB;" d="M393.537,279.05v43.16c0,69.94-56.69,126.63-126.63,126.63h-52.48
	c-69.93,0-126.63-56.69-126.63-126.63v-43.16H393.537z"/>
<path style="fill:#83E46F;" d="M393.537,279.05v43.16c0,69.94-56.69,126.63-126.63,126.63h-26.24V279.05H393.537z"/>
<g>
</g>
<g>
</g>
<g>
</g>
<g>
</g>
<g>
</g>
<g>
</g>
<g>
</g>
<g>
</g>
<g>
</g>
<g>
</g>
<g>
</g>
<g>
</g>
<g>
</g>
<g>
</g>
<g>
</g>
</svg>
