<svg id="Capa_1" enable-background="new 0 0 512 512" height="512" viewBox="0 0 512 512" width="512" xmlns="http://www.w3.org/2000/svg"><g><path d="m125.268 325.12c-41.829-27.549-124.159-62.738-91.626-173.974 20.688-70.733 31.259-99.777 21.806-125.335-4.402-11.901 6.614-23.805 18.654-19.798 62.958 20.951 137.623 94.823 121.545 194.621z" fill="#f8d2e3"/><path d="m368.466 208.997c-1.713-36.618 30.787-93.209 81.505-126.555 15.502-10.192 35.578 3.867 30.937 21.83-8.443 32.674-8.179 67.394 2.319 114.097 15.751 70.077-43.791 124.071-105.265 101.58z" fill="#f8d2e3"/><path d="m340.676 512h-162.294c-38.353 0-69.444-31.091-69.444-69.444v-235.635c0-27.635 22.403-50.038 50.038-50.038h201.107c27.635 0 50.038 22.403 50.038 50.038v235.634c-.001 38.354-31.092 69.445-69.445 69.445z" fill="#fbf1cf"/><path d="m289.632 430.805c-16.625 0-30.103-13.478-30.103-30.103v-132.521c0-16.625 13.478-30.103 30.103-30.103h120.489v-31.157c0-27.635-22.403-50.038-50.038-50.038h-201.108c-27.635 0-50.038 22.403-50.038 50.038v235.634c0 38.353 31.091 69.444 69.444 69.444h162.294c38.353 0 69.444-31.091 69.444-69.444v-11.75z" fill="#d2996f"/><path d="m167.416 90.516h184.227v66.368h-184.227z" fill="#cb775a"/><path d="m362.333 90.516h-205.608c-11.669 0-21.129-9.46-21.129-21.129v-20.141c-.001-27.198 22.047-49.246 49.245-49.246h149.376c27.198 0 49.245 22.048 49.245 49.246v20.141c0 11.669-9.459 21.129-21.129 21.129z" fill="#d1c4e9"/><path d="m226.505 0h-41.664c-27.198 0-49.246 22.048-49.246 49.246v20.141c0 11.669 9.46 21.129 21.129 21.129h81.925c-16.879-21.696-20.331-67.702-12.144-90.516z" fill="#b0ade2"/><g><path d="m259.529 301.577v99.125c0 16.625 13.478 30.103 30.103 30.103h120.488v-129.228z" fill="#d1c4e9"/></g><path d="m368.401 401.307h-16.793c-4.142 0-7.5-3.358-7.5-7.5s3.358-7.5 7.5-7.5h16.793c4.142 0 7.5 3.358 7.5 7.5s-3.357 7.5-7.5 7.5z" fill="#fbf1cf"/><g><path d="m340.467 298.141c-14.9-14.9-39.059-14.9-53.959 0l-26.979 26.979 26.979 26.979c14.9 14.9 39.058 14.9 53.959 0 14.9-14.9 14.9-39.058 0-53.958z" fill="#f8d2e3"/><path d="m232.55 244.182c-14.9 14.9-14.9 39.058 0 53.959l26.979 26.979 26.979-26.979c14.9-14.9 14.9-39.058 0-53.959-14.9-14.9-39.058-14.9-53.958 0z" fill="#f1b3c1"/><path d="m178.591 352.1c14.9 14.9 39.059 14.9 53.959 0l26.979-26.979-26.979-26.979c-14.9-14.9-39.058-14.9-53.959 0-14.901 14.899-14.901 39.057 0 53.958z" fill="#f8d2e3"/><path d="m286.508 406.059c14.9-14.9 14.9-39.059 0-53.959l-26.979-26.979-26.979 26.979c-14.9 14.9-14.9 39.059 0 53.959 14.9 14.9 39.058 14.9 53.958 0z" fill="#f1b3c1"/><circle cx="259.529" cy="325.12" fill="#f6ee86" r="38.155"/></g><g fill="#cb775a"><path d="m259.529 480.795c-4.142 0-7.5-3.358-7.5-7.5v-6.101c0-4.142 3.358-7.5 7.5-7.5s7.5 3.358 7.5 7.5v6.101c0 4.143-3.358 7.5-7.5 7.5z"/><path d="m178.328 480.795c-4.142 0-7.5-3.358-7.5-7.5v-6.101c0-4.142 3.358-7.5 7.5-7.5s7.5 3.358 7.5 7.5v6.101c0 4.143-3.358 7.5-7.5 7.5z"/><path d="m340.73 480.795c-4.142 0-7.5-3.358-7.5-7.5v-6.101c0-4.142 3.358-7.5 7.5-7.5s7.5 3.358 7.5 7.5v6.101c0 4.143-3.358 7.5-7.5 7.5z"/></g></g></svg>