<svg id="flat" height="512" viewBox="0 0 512 512" width="512" xmlns="http://www.w3.org/2000/svg"><path d="m184 424v64h272l32-32v-32z" fill="#eda600"/><path d="m184 160h304v264h-304z" fill="#e5e7e9"/><path d="m488 160v-96l-32-40h-240l-32 40v96z" fill="#f6bb00"/><path d="m400 160a64 64 0 1 1 -64-64 64.03536 64.03536 0 0 1 64 64z" fill="#c78640"/><path d="m344 304h80v16h-80z" fill="#b0b4b8"/><path d="m256 304h72v16h-72z" fill="#b0b4b8"/><path d="m328 272h56v16h-56z" fill="#b0b4b8"/><path d="m288 272h24v16h-24z" fill="#b0b4b8"/><path d="m296 336h80v16h-80z" fill="#b0b4b8"/><path d="m374.40039 164.7998-12.80078-9.5996-10.45654 13.94213a65.70975 65.70975 0 0 0 -3.82471-13.89038l11.83691-23.67383-14.31054-7.15624-7.14551 14.29125a66.04921 66.04921 0 0 0 -22.11914-17.87329l-7.16016 14.32007a49.942 49.942 0 0 1 17.11157 13.97681l-19.59106-4.89746-3.88086 15.52148 32 8c.17139.043.34326.06446.51514.09571a50.41276 50.41276 0 0 1 1.42529 11.92355v1.97339l-22.05957-5.51416-3.88086 15.52148 25.94043 6.48514v25.75415a64.40657 64.40657 0 0 0 16-2.01v-27.323z" fill="#a36522"/><path d="m344 488-133.58735-155.85191a34.7875 34.7875 0 0 0 -26.41265-12.14809 34.7875 34.7875 0 0 0 -26.41263 12.14809l-133.58737 155.85191z" fill="#f5b97d"/><g fill="#e6a565"><path d="m88 448h24v16h-24z"/><path d="m128 432h24v16h-24z"/><path d="m128 392h24v16h-24z"/><path d="m216 448h24v16h-24z"/><path d="m208 392h24v16h-24z"/><path d="m176 352h24v16h-24z"/><path d="m248 424h24v16h-24z"/></g></svg>