<svg id="Capa_1" enable-background="new 0 0 512.066 512.066" height="512" viewBox="0 0 512.066 512.066" width="512" xmlns="http://www.w3.org/2000/svg"><g><path d="m430.534 418.667 32.999-12.667c31.488-43.365 48.5-95.372 48.5-150 0-141.483-114.497-256-256-256-141.483 0-256 114.497-256 256 0 54.628 17.012 106.635 48.501 150l28.721 15-3.236 15c99.2 100.361 262.443 102.475 364.029 0z" fill="#e4f3ff"/><path d="m437.534 418.667 25.998-12.667c31.489-43.365 48.501-95.372 48.501-150 0-141.483-114.497-256-256-256v512c68.722 0 133.493-26.911 182.015-76z" fill="#c3dafd"/><path d="m463.533 406h-415c7.653 10.539 16.156 20.569 25.485 30h364.029c9.33-9.431 17.832-19.461 25.486-30z" fill="#457899"/><path d="m463.533 406h-207.5v30h182.015c9.329-9.431 17.831-19.461 25.485-30z" fill="#365c75"/><path d="m256.033 352.2c2.353-2.613 84.75-33.045 78.66-126.212-5.23-79.95-73.034-127.083-78.66-133.116-5.625 6.033-73.43 53.166-78.659 133.116-6.09 93.167 76.305 123.599 78.659 126.212z" fill="#73ca7a"/><path d="m334.693 225.988c-5.23-79.95-73.034-127.083-78.66-133.116v259.328c2.353-2.613 84.75-33.045 78.66-126.212z" fill="#62a872"/><path d="m434.806 214.133h-89.386c-52.455 0-89.39 48.551-89.39 117.494l.002 29.373h89.386c52.454 0 89.389-48.55 89.39-117.493z" fill="#73ca7a"/><path d="m77.255 214.133h89.386c52.455 0 89.39 48.551 89.39 117.494l-.001 29.373h-89.386c-52.454 0-89.389-48.55-89.39-117.493z" fill="#b6dc45"/></g></svg>