<svg id="Layer_1" enable-background="new 0 0 256 256" height="512" viewBox="0 0 256 256" width="512" xmlns="http://www.w3.org/2000/svg"><g><path d="m13.166 246v-236c0-2.761 2.239-5 5-5h219.668c2.761 0 5 2.239 5 5v236c0 2.761-2.239 5-5 5h-219.668c-2.762 0-5-2.239-5-5z" fill="#b35034"/><g fill="#efefef"><path d="m26.38 18.21h203.24v101.22h-203.24z"/><path d="m26.38 131.03h203.24v106.76h-203.24z"/><path d="m149.135 119.434h-42.27l2.609-43.526 1.101-18.333h34.85l1.101 18.333z"/></g><path d="m136.631 76.058-.639-10.625c-.083-1.378.967-2.563 2.345-2.646 1.421-.073 2.563.968 2.646 2.346l.639 10.625c.083 1.378-.967 2.563-2.345 2.646-1.405.079-2.565-.988-2.646-2.346z" fill="#fff"/><path d="m148.355 41.668-2.929 15.904h-34.851l-2.929-15.904c-.409-2.221 1.296-4.268 3.554-4.268h33.601c2.258 0 3.962 2.047 3.554 4.268z" fill="#7c7b7a"/><path d="m149.135 119.434h-42.27l2.609-43.526h37.052z" fill="#13bf6d"/><path d="m141.271 114.226c-1.313 0-2.414-1.023-2.493-2.351l-.239-3.993c-.083-1.378.968-2.563 2.346-2.645 1.396-.079 2.563.968 2.645 2.346l.239 3.993c.083 1.378-.968 2.563-2.346 2.645-.051.004-.102.005-.152.005zm-3.331-16.325-1.197-19.964c-.083-1.378.967-2.563 2.346-2.646 1.39-.077 2.563.969 2.645 2.346l1.197 19.964c.083 1.378-.967 2.563-2.346 2.646-1.391.08-2.563-.978-2.645-2.346z" fill="#76ffba"/><path d="m82.428 119.434h-42.27l2.61-43.526 1.101-18.333h34.849l1.101 18.333z" fill="#efefef"/><path d="m69.924 76.058-.639-10.625c-.083-1.378.967-2.563 2.346-2.646 1.361-.081 2.562.967 2.646 2.346l.639 10.625c.083 1.378-.967 2.563-2.346 2.646-1.395.08-2.564-.98-2.646-2.346z" fill="#fff"/><path d="m81.648 41.668-2.929 15.904h-34.851l-2.929-15.904c-.409-2.221 1.296-4.268 3.554-4.268h33.601c2.258 0 3.963 2.047 3.554 4.268z" fill="#7c7b7a"/><path d="m82.428 119.434h-42.27l2.61-43.526h37.051z" fill="#fc5d3d"/><path d="m72.071 111.875-.239-3.993c-.083-1.378.968-2.563 2.346-2.645 1.382-.08 2.562.968 2.645 2.346l.239 3.993c.083 1.378-.968 2.563-2.346 2.645-1.393.081-2.563-.979-2.645-2.346zm-.838-13.975-1.197-19.964c-.083-1.378.968-2.563 2.346-2.645 1.372-.081 2.563.967 2.645 2.346l1.197 19.964c.083 1.378-.968 2.563-2.346 2.645-1.393.081-2.563-.979-2.645-2.346z" fill="#fff"/><path d="m215.842 119.434h-42.27l2.609-43.526 1.101-18.333h34.849l1.101 18.333z" fill="#efefef"/><path d="m203.338 76.058-.639-10.625c-.083-1.378.967-2.563 2.345-2.646 1.427-.073 2.563.968 2.646 2.346l.639 10.625c.083 1.378-.967 2.563-2.345 2.646-1.405.079-2.565-.988-2.646-2.346z" fill="#fff"/><path d="m215.061 41.668-2.929 15.904h-34.851l-2.929-15.904c-.409-2.221 1.296-4.268 3.554-4.268h33.601c2.258 0 3.963 2.047 3.554 4.268z" fill="#7c7b7a"/><path d="m215.842 119.434h-42.27l2.609-43.526h37.051z" fill="#f0c020"/><path d="m205.485 111.875-.239-3.993c-.083-1.378.968-2.563 2.346-2.645 1.39-.079 2.563.968 2.645 2.346l.239 3.993c.083 1.378-.968 2.563-2.346 2.645-1.391.081-2.563-.976-2.645-2.346zm-.838-13.974-1.197-19.964c-.083-1.378.967-2.563 2.346-2.646 1.396-.077 2.563.969 2.645 2.346l1.197 19.964c.083 1.378-.967 2.563-2.346 2.646-1.391.08-2.563-.978-2.645-2.346z" fill="#fff"/><path d="m149.135 237.792h-42.27l2.609-43.526 1.101-18.333h34.85l1.101 18.333z" fill="#efefef"/><path d="m136.631 194.416-.639-10.625c-.083-1.378.967-2.563 2.345-2.646 1.421-.071 2.563.968 2.646 2.346l.639 10.625c.083 1.378-.967 2.563-2.345 2.646-1.405.079-2.565-.988-2.646-2.346z" fill="#fff"/><path d="m148.355 160.026-2.929 15.904h-34.851l-2.929-15.904c-.409-2.221 1.296-4.268 3.554-4.268h33.601c2.258 0 3.962 2.047 3.554 4.268z" fill="#7c7b7a"/><path d="m149.135 237.792h-42.27l2.609-43.526h37.052z" fill="#d6c0b4"/><path d="m138.778 230.233-.239-3.993c-.083-1.378.968-2.563 2.346-2.645 1.396-.076 2.563.969 2.645 2.346l.239 3.993c.083 1.378-.968 2.563-2.346 2.645-1.391.081-2.563-.977-2.645-2.346zm-.838-13.974-1.197-19.964c-.083-1.378.967-2.563 2.346-2.646 1.39-.074 2.563.968 2.645 2.346l1.197 19.964c.083 1.378-.967 2.563-2.346 2.646-1.391.08-2.563-.978-2.645-2.346z" fill="#fff"/><path d="m82.428 237.792h-42.27l2.61-43.526 1.101-18.333h34.849l1.101 18.333z" fill="#efefef"/><path d="m69.924 194.416-.639-10.625c-.083-1.378.967-2.563 2.346-2.646 1.37-.085 2.563.968 2.646 2.346l.639 10.625c.083 1.378-.967 2.563-2.346 2.646-1.395.08-2.564-.98-2.646-2.346z" fill="#fff"/><path d="m81.648 160.026-2.929 15.904h-34.851l-2.929-15.904c-.409-2.221 1.296-4.268 3.554-4.268h33.601c2.258 0 3.963 2.047 3.554 4.268z" fill="#7c7b7a"/><path d="m82.428 237.792h-42.27l2.61-43.526h37.051z" fill="#7c7b7a"/><path d="m72.071 230.233-.239-3.993c-.083-1.378.968-2.563 2.346-2.645 1.375-.08 2.563.968 2.645 2.346l.239 3.993c.083 1.378-.968 2.563-2.346 2.645-1.393.081-2.563-.979-2.645-2.346zm1.656-11.624c-1.312 0-2.414-1.023-2.493-2.351l-1.197-19.964c-.083-1.378.968-2.563 2.346-2.645 1.372-.077 2.563.968 2.645 2.346l1.197 19.964c.083 1.378-.968 2.563-2.346 2.645-.051.003-.102.005-.152.005z" fill="#fff"/><path d="m215.842 237.792h-42.27l2.609-43.526 1.101-18.333h34.849l1.101 18.333z" fill="#efefef"/><path d="m203.338 194.416-.639-10.625c-.083-1.378.967-2.563 2.345-2.646 1.427-.071 2.563.968 2.646 2.346l.639 10.625c.083 1.378-.967 2.563-2.345 2.646-1.405.079-2.565-.988-2.646-2.346z" fill="#fff"/><path d="m215.061 160.026-2.929 15.904h-34.851l-2.929-15.904c-.409-2.221 1.296-4.268 3.554-4.268h33.601c2.258 0 3.963 2.047 3.554 4.268z" fill="#7c7b7a"/><path d="m215.842 237.792h-42.27l2.609-43.526h37.051z" fill="#7c7b7a"/><path d="m205.485 230.233-.239-3.993c-.083-1.378.968-2.563 2.346-2.645 1.39-.076 2.563.969 2.645 2.346l.239 3.993c.083 1.378-.968 2.563-2.346 2.645-1.391.081-2.563-.977-2.645-2.346zm-.838-13.974-1.197-19.964c-.083-1.378.967-2.563 2.346-2.646 1.396-.074 2.563.968 2.645 2.346l1.197 19.964c.083 1.378-.967 2.563-2.346 2.646-1.391.08-2.563-.978-2.645-2.346z" fill="#fff"/><path d="m107.78 104.23c.05 0 .1.01.15.01 1.32 0 2.41-1.04 2.49-2.35.04-.67-.18-1.31-.62-1.81-.45-.5-1.06-.8-1.73-.84-1.38-.08-2.56.98-2.64 2.34-.08 1.38.97 2.57 2.35 2.65z"/><path d="m121.833 102.608c1.381 0 2.5-1.119 2.5-2.5v-.596c0-1.381-1.119-2.5-2.5-2.5s-2.5 1.119-2.5 2.5v.596c0 1.381 1.12 2.5 2.5 2.5z"/><path d="m131.456 93.31c1.381 0 2.5-1.119 2.5-2.5v-.596c0-1.381-1.119-2.5-2.5-2.5s-2.5 1.119-2.5 2.5v.596c0 1.38 1.119 2.5 2.5 2.5z"/><path d="m130.841 104.4v.596c0 1.381 1.119 2.5 2.5 2.5s2.5-1.119 2.5-2.5v-.596c0-1.381-1.119-2.5-2.5-2.5s-2.5 1.12-2.5 2.5z"/><path d="m55.126 97.012c-1.381 0-2.5 1.119-2.5 2.5v.596c0 1.381 1.119 2.5 2.5 2.5s2.5-1.119 2.5-2.5v-.596c0-1.381-1.119-2.5-2.5-2.5z"/><path d="m67.25 90.81v-.596c0-1.381-1.119-2.5-2.5-2.5s-2.5 1.119-2.5 2.5v.596c0 1.381 1.119 2.5 2.5 2.5s2.5-1.12 2.5-2.5z"/><path d="m66.634 101.9c-1.381 0-2.5 1.119-2.5 2.5v.596c0 1.381 1.119 2.5 2.5 2.5s2.5-1.119 2.5-2.5v-.596c0-1.38-1.119-2.5-2.5-2.5z"/><path d="m188.54 97.012c-1.381 0-2.5 1.119-2.5 2.5v.596c0 1.381 1.119 2.5 2.5 2.5s2.5-1.119 2.5-2.5v-.596c0-1.381-1.119-2.5-2.5-2.5z"/><path d="m200.663 90.81v-.596c0-1.381-1.119-2.5-2.5-2.5s-2.5 1.119-2.5 2.5v.596c0 1.381 1.119 2.5 2.5 2.5s2.5-1.12 2.5-2.5z"/><path d="m200.048 101.9c-1.381 0-2.5 1.119-2.5 2.5v.596c0 1.381 1.119 2.5 2.5 2.5s2.5-1.119 2.5-2.5v-.596c0-1.38-1.119-2.5-2.5-2.5z"/><path d="m121.833 215.37c-1.381 0-2.5 1.119-2.5 2.5v.596c0 1.381 1.119 2.5 2.5 2.5s2.5-1.119 2.5-2.5v-.596c0-1.381-1.119-2.5-2.5-2.5z"/><path d="m133.956 209.167v-.596c0-1.381-1.119-2.5-2.5-2.5s-2.5 1.119-2.5 2.5v.596c0 1.381 1.119 2.5 2.5 2.5s2.5-1.119 2.5-2.5z"/><path d="m133.341 220.258c-1.381 0-2.5 1.119-2.5 2.5v.596c0 1.381 1.119 2.5 2.5 2.5s2.5-1.119 2.5-2.5v-.596c0-1.381-1.119-2.5-2.5-2.5z"/><path d="m55.126 215.37c-1.381 0-2.5 1.119-2.5 2.5v.596c0 1.381 1.119 2.5 2.5 2.5s2.5-1.119 2.5-2.5v-.596c0-1.381-1.119-2.5-2.5-2.5z"/><path d="m67.25 209.167v-.596c0-1.381-1.119-2.5-2.5-2.5s-2.5 1.119-2.5 2.5v.596c0 1.381 1.119 2.5 2.5 2.5s2.5-1.119 2.5-2.5z"/><path d="m66.634 220.258c-1.381 0-2.5 1.119-2.5 2.5v.596c0 1.381 1.119 2.5 2.5 2.5s2.5-1.119 2.5-2.5v-.596c0-1.381-1.119-2.5-2.5-2.5z"/><path d="m188.54 215.37c-1.381 0-2.5 1.119-2.5 2.5v.596c0 1.381 1.119 2.5 2.5 2.5s2.5-1.119 2.5-2.5v-.596c0-1.381-1.119-2.5-2.5-2.5z"/><path d="m200.663 209.167v-.596c0-1.381-1.119-2.5-2.5-2.5s-2.5 1.119-2.5 2.5v.596c0 1.381 1.119 2.5 2.5 2.5s2.5-1.119 2.5-2.5z"/><path d="m200.048 220.258c-1.381 0-2.5 1.119-2.5 2.5v.596c0 1.381 1.119 2.5 2.5 2.5s2.5-1.119 2.5-2.5v-.596c0-1.381-1.119-2.5-2.5-2.5z"/><path d="m245.33 10c0-4.13-3.36-7.5-7.5-7.5h-219.66c-4.14 0-7.5 3.37-7.5 7.5v236c0 4.13 3.36 7.5 7.5 7.5h219.66c4.14 0 7.5-3.37 7.5-7.5v-147.38c0-1.38-1.12-2.5-2.5-2.5-1.37 0-2.5 1.12-2.5 2.5v147.38c0 1.38-1.12 2.5-2.5 2.5h-219.66c-1.38 0-2.5-1.12-2.5-2.5v-236c0-1.38 1.12-2.5 2.5-2.5h219.66c1.38 0 2.5 1.12 2.5 2.5v68.62c0 1.38 1.13 2.5 2.5 2.5 1.38 0 2.5-1.12 2.5-2.5z"/><circle cx="242.83" cy="88.62" r="2.5"/><path d="m232.12 18.21c0-1.381-1.119-2.5-2.5-2.5h-203.24c-1.381 0-2.5 1.119-2.5 2.5v101.22c0 1.381 1.119 2.5 2.5 2.5h203.24c1.381 0 2.5-1.119 2.5-2.5zm-182.195 21.69c.836 6.361 4.948 10.086 11.368 10.086s10.532-3.725 11.368-10.086h5.432c.697 0 1.222.63 1.096 1.315l-2.552 13.856h-30.688l-2.552-13.856c-.126-.685.399-1.315 1.096-1.315zm5.048 0h12.641c-.962 5.086-4.906 5.086-6.32 5.086s-5.359 0-6.321-5.086zm-8.75 20.175h30.14l.8 13.333h-31.74zm-1.1 18.333h32.34l2.311 38.522h-36.961zm71.509-38.508c.836 6.361 4.948 10.086 11.368 10.086s10.532-3.725 11.368-10.086h5.433c.698 0 1.222.631 1.095 1.315 0 .001-2.552 13.856-2.552 13.857h-30.688l-2.552-13.857c-.126-.687.403-1.315 1.096-1.315zm5.047 0h12.641c-.962 5.086-4.906 5.086-6.32 5.086-1.415 0-5.359 0-6.321-5.086zm-8.749 20.18h30.14l.799 13.328h-31.739zm70.408-20.18c.836 6.361 4.949 10.086 11.369 10.086s10.532-3.725 11.368-10.086h5.432c.699 0 1.223.633 1.096 1.315 0 .001-2.552 13.856-2.552 13.857h-30.688l-2.552-13.857c-.127-.684.397-1.315 1.095-1.315zm5.048 0h12.642c-.962 5.086-4.906 5.086-6.32 5.086-1.416 0-5.36 0-6.322-5.086zm-8.749 20.175h30.14l.8 13.333h-31.739zm-1.1 18.333h32.339l2.311 38.522h-36.962zm48.583 38.522h-8.924l-3.551-59.193 2.876-15.617c.691-3.76-2.197-7.221-6.014-7.221-14.829 0-18.161 0-33.601 0-3.822 0-6.703 3.466-6.013 7.221l2.875 15.613-3.551 59.197h-19.728l-3.551-59.196 2.875-15.614c.691-3.759-2.196-7.221-6.013-7.221-14.828 0-18.166 0-33.601 0-3.821 0-6.705 3.467-6.013 7.221l2.875 15.61-2.031 33.87c-.08 1.38.97 2.57 2.34 2.65 1.39.09 2.57-.98 2.65-2.35l.81-13.492h32.339l2.311 38.521h-36.96l.3-5.06c.08-1.38-.97-2.56-2.34-2.65-1.39-.08-2.57.98-2.65 2.35l-.32 5.36h-19.727l-3.551-59.201 2.875-15.609c.692-3.76-2.197-7.221-6.013-7.221-14.825 0-18.168 0-33.601 0-3.823 0-6.704 3.468-6.013 7.221l2.875 15.609-3.551 59.201h-8.924v-96.219h198.24z"/><path d="m23.88 237.79c0 1.366 1.111 2.5 2.5 2.5h203.24c1.39 0 2.5-1.117 2.5-2.5v-106.76c0-1.384-1.111-2.5-2.5-2.5h-203.24c-1.39 0-2.5 1.134-2.5 2.5v60c0 1.38 1.12 2.5 2.5 2.5s2.5-1.12 2.5-2.5v-57.5h198.24v101.76h-8.924l-3.551-59.195 2.876-15.617c.691-3.759-2.195-7.221-6.014-7.221-14.223 0-17.037 0-33.601 0-3.821 0-6.703 3.466-6.013 7.221l2.875 15.613-3.551 59.199h-19.728l-3.55-59.199 2.875-15.613c.691-3.759-2.196-7.221-6.013-7.221-14.248 0-17.034 0-33.601 0-3.821 0-6.705 3.467-6.013 7.221l2.875 15.611-3.551 59.201h-19.728l-3.551-59.203 2.875-15.609c.33-1.791-.149-3.62-1.314-5.019s-2.877-2.202-4.698-2.202h-7.766-18.07-7.766c-1.821 0-3.533.802-4.698 2.202-1.165 1.399-1.644 3.229-1.314 5.019l2.875 15.609-3.551 59.203h-8.925v-24.26c0-1.38-1.12-2.5-2.5-2.5s-2.5 1.12-2.5 2.5zm155.757-59.357h30.14l.8 13.333h-31.739zm21.39-20.175c-.962 5.086-4.906 5.086-6.32 5.086-1.415 0-5.359 0-6.321-5.086zm-23.121 0h5.432c.836 6.361 4.949 10.086 11.369 10.086s10.532-3.725 11.368-10.086h5.432c.701 0 1.222.634 1.096 1.315 0 0-2.551 13.854-2.552 13.857h-30.688l-2.552-13.857c-.126-.681.397-1.315 1.095-1.315zm.631 38.508h32.339l2.311 38.524h-36.962zm-65.607-18.333h30.14l.8 13.333h-31.74zm21.39-20.175c-.962 5.086-4.906 5.086-6.32 5.086-1.415 0-5.359 0-6.321-5.086zm-23.12 0h5.432c.836 6.361 4.948 10.086 11.368 10.086s10.532-3.725 11.368-10.086h5.433c.698 0 1.221.634 1.095 1.315 0 0-2.551 13.854-2.552 13.857h-30.688l-2.552-13.857c-.126-.688.403-1.315 1.096-1.315zm.63 38.508h32.34l2.311 38.524h-36.961zm-65.607-18.333h30.14l.8 13.333h-31.74zm21.391-20.175c-.962 5.086-4.906 5.086-6.32 5.086s-5.359 0-6.321-5.086zm-23.977.401c.125-.15.402-.401.856-.401h5.432c.836 6.361 4.948 10.086 11.368 10.086s10.532-3.725 11.368-10.086h5.432c.454 0 .731.251.856.401.125.149.322.468.24.914l-2.552 13.856h-30.688l-2.552-13.856c-.082-.446.115-.764.24-.914zm1.486 38.107h32.34l2.311 38.524h-36.961z"/><circle cx="26.38" cy="201.03" r="2.5"/></g></svg>